<?xml version="1.0" encoding="UTF-8" standalone="no"?>
<!-- Created with Inkscape (http://www.inkscape.org/) -->

<svg
   width="210mm"
   height="297mm"
   viewBox="0 0 210 297"
   version="1.1"
   id="svg5"
   xml:space="preserve"
   inkscape:version="1.2.1 (9c6d41e410, 2022-07-14)"
   sodipodi:docname="label_DATA_INTERESTING_DESC_NO_MISSED_OPPORTUNITY.svg"
   xmlns:inkscape="http://www.inkscape.org/namespaces/inkscape"
   xmlns:sodipodi="http://sodipodi.sourceforge.net/DTD/sodipodi-0.dtd"
   xmlns="http://www.w3.org/2000/svg"
   xmlns:svg="http://www.w3.org/2000/svg"><sodipodi:namedview
     id="namedview7"
     pagecolor="#ffffff"
     bordercolor="#000000"
     borderopacity="0.25"
     inkscape:showpageshadow="2"
     inkscape:pageopacity="0.0"
     inkscape:pagecheckerboard="0"
     inkscape:deskcolor="#d1d1d1"
     inkscape:document-units="mm"
     showgrid="false"
     inkscape:zoom="0.84096521"
     inkscape:cx="360.89484"
     inkscape:cy="413.81022"
     inkscape:window-width="2256"
     inkscape:window-height="1398"
     inkscape:window-x="3829"
     inkscape:window-y="-11"
     inkscape:window-maximized="1"
     inkscape:current-layer="layer1" /><defs
     id="defs2" /><g
     inkscape:label="Calque 1"
     inkscape:groupmode="layer"
     id="layer1"><path
       style="fill:#f2f2f2;stroke-width:0.264583;fill-opacity:1"
       d="m 98.095213,179.98594 c -2.3089,-0.72195 -3.789939,-2.11889 -3.789939,-3.57474 0,-0.53535 0.108238,-0.54231 8.438356,-0.54231 9.19547,0 9.00683,-0.0339 8.36145,1.50105 -0.4411,1.04907 -1.89605,2.14907 -3.46847,2.6223 -1.60909,0.48426 -7.985975,0.48006 -9.541397,-0.006 z m -6.303481,-5.81346 c -1.405197,-0.62455 -2.513541,-2.23896 -2.513541,-3.66124 0,-1.13547 1.077613,-2.84351 2.134012,-3.38245 0.962917,-0.49124 1.601002,-0.52031 11.419467,-0.52031 9.61344,0 10.46926,0.037 11.32148,0.4899 2.82497,1.50119 2.82838,5.42902 0.006,6.85228 -1.16453,0.58724 -1.31888,0.59518 -11.37708,0.58496 -7.905786,-0.008 -10.374867,-0.0896 -10.990293,-0.36314 z m 0.296148,-8.89603 c -1.455465,-0.43578 -2.809689,-2.23615 -2.809689,-3.73532 0,-1.15868 1.06798,-2.86432 2.134012,-3.40817 0.962941,-0.49125 1.600526,-0.52029 11.415337,-0.51991 9.36892,2.7e-4 10.48636,0.0461 11.31621,0.46302 2.82616,1.41992 2.83517,5.45681 0.0153,6.87876 -1.16517,0.58756 -1.31161,0.59502 -11.24479,0.57257 -5.535338,-0.0125 -10.407232,-0.12543 -10.826435,-0.25095 z m -2.332839,-11.47139 c -2.525524,-1.0387 -4.291364,-2.84755 -5.230664,-5.35806 -0.396732,-1.06036 -0.613442,-2.58779 -0.813131,-5.73114 -0.439367,-6.91617 -0.231224,-6.42178 -4.735681,-11.24827 -6.737384,-7.21906 -9.534562,-12.48895 -10.909689,-20.5539 -0.714607,-4.19111 -0.579892,-11.485682 0.274479,-14.862302 1.801601,-7.12025 5.065297,-12.81981 10.117928,-17.66944 2.720287,-2.611002 5.966143,-4.905702 8.98666,-6.353248 1.021694,-0.489632 2.00097,-1.004773 2.176166,-1.144754 0.672687,-0.537474 6.814881,-1.906375 9.909685,-2.208556 4.754096,-0.464197 10.102226,0.148223 15.147396,1.734545 1.71261,0.538486 6.40134,3.126115 8.83082,4.873574 7.24592,5.211809 12.27484,13.119149 14.10539,22.178949 0.63122,3.124042 0.6313,10.308372 1.4e-4,13.774962 -1.40155,7.69803 -4.35167,13.15291 -10.9059,20.16546 -1.55588,1.66468 -3.11695,3.462 -3.46903,3.99404 -0.7668,1.15871 -1.09836,3.04154 -1.41574,8.03954 -0.27392,4.31362 -0.49096,5.20799 -1.68614,6.9482 -1.10162,1.60397 -2.64203,2.79341 -4.53487,3.50161 -1.41104,0.52794 -1.95969,0.55111 -12.90699,0.54509 -11.379549,-0.006 -11.440393,-0.009 -12.940829,-0.6263 z m 23.660359,-7.50335 c 0.29327,-0.33387 0.4594,-1.38559 0.59554,-3.77032 0.47204,-8.26803 1.16153,-10.07306 5.75428,-15.06412 5.79212,-6.29446 7.77237,-9.21524 9.16021,-13.51087 1.34644,-4.16751 1.76956,-10.76386 0.96313,-15.015012 -1.769,-9.32542 -8.09827,-17.02839 -16.87757,-20.54066 -4.02796,-1.611443 -5.53454,-1.879265 -10.50363,-1.867235 -4.268259,0.01035 -4.816359,0.06771 -7.011461,0.734018 -7.325368,2.223547 -13.319432,6.965507 -16.765764,13.263557 -2.613213,4.77555 -3.619249,9.20515 -3.397361,14.958662 0.203996,5.28956 1.016381,8.47748 3.212234,12.60525 1.405316,2.64172 2.715565,4.37371 5.976308,7.89996 5.853258,6.32985 6.511996,7.80551 6.791362,15.21354 0.08506,2.25557 0.252804,4.36456 0.372763,4.68665 0.259268,0.69612 0.759209,0.72659 13.360599,0.81422 7.29353,0.0507 7.99681,0.0165 8.36936,-0.40764 z M 43.245969,112.17005 c -2.83267,-1.42319 -2.83267,-5.57157 0,-7.01829 0.81336,-0.41541 1.58985,-0.4617 6.65682,-0.39687 5.31734,0.068 5.78933,0.1132 6.465943,0.6189 1.864922,1.39383 2.350867,3.09617 1.42801,5.00254 -1.00845,2.08318 -1.635407,2.25722 -8.129363,2.25674 -4.70883,-2.7e-4 -5.63319,-0.067 -6.42141,-0.46302 z m 106.089941,-0.13188 c -1.42745,-0.97152 -1.91045,-1.82439 -1.91045,-3.37344 0,-1.48712 0.4377,-2.31037 1.74969,-3.29094 0.67661,-0.5057 1.14861,-0.55088 6.46594,-0.6189 6.45762,-0.0826 7.02055,0.0405 8.20159,1.79317 0.85022,1.26175 0.73254,3.61356 -0.2332,4.66069 -1.19635,1.29717 -1.90126,1.42473 -7.87325,1.42473 -5.29471,0 -5.56217,-0.0249 -6.40032,-0.59531 z M 61.604588,80.467628 c -0.450117,-0.22209 -2.491861,-2.09461 -4.537209,-4.16116 -2.95786,-2.988522 -3.78702,-3.987459 -4.05213,-4.881843 -0.84523,-2.851459 1.67994,-5.531139 4.685859,-4.972589 0.855469,0.15896 1.660383,0.826417 5.04911,4.186861 4.28485,4.249086 4.743709,4.952828 4.485343,6.879091 -0.352547,2.62842 -3.228607,4.13498 -5.630973,2.94964 z m 78.795912,-0.0242 c -1.61345,-0.79524 -2.41589,-2.55537 -2.05121,-4.499269 0.1532,-0.816621 0.88363,-1.696479 4.18555,-5.041793 2.97975,-3.018911 4.24979,-4.127383 4.97947,-4.345999 3.00833,-0.901318 5.79701,1.822489 4.98418,4.86823 -0.24549,0.919871 -0.98153,1.816044 -4.04509,4.925173 -2.05975,2.090388 -4.12813,3.965618 -4.5964,4.167188 -1.11951,0.4819 -2.38416,0.455 -3.4565,-0.0735 z M 100.65514,61.50275 c -1.700965,-1.161061 -1.85195,-1.801034 -1.85195,-7.849836 0,-4.92256 0.04918,-5.512277 0.545071,-6.536661 0.395737,-0.817488 0.853549,-1.275297 1.671029,-1.671036 1.43899,-0.696601 2.15837,-0.686548 3.59524,0.05024 1.98524,1.017981 2.12623,1.548527 2.12575,7.999518 -2.7e-4,4.765699 -0.0665,5.691972 -0.46302,6.481145 -1.023,2.036156 -3.77921,2.784577 -5.62212,1.526628 z"
       id="path302"
       inkscape:export-filename="label_DATA_INTERESTING_DESC_NO_MISSED_OPPORTUNITY.png"
       inkscape:export-xdpi="96"
       inkscape:export-ydpi="96" /></g></svg>
