<?xml version="1.0" encoding="UTF-8" standalone="no"?>
<!-- Created with Inkscape (http://www.inkscape.org/) -->

<svg
   width="210mm"
   height="297mm"
   viewBox="0 0 210 297"
   version="1.1"
   id="svg5"
   xml:space="preserve"
   inkscape:version="1.2.1 (9c6d41e410, 2022-07-14)"
   sodipodi:docname="label_DATA_INTERESTING_DESC_NO_SCAM.svg"
   inkscape:export-filename="label_DATA_INTERESTING_DESC_NO_SCAM.png"
   inkscape:export-xdpi="96"
   inkscape:export-ydpi="96"
   xmlns:inkscape="http://www.inkscape.org/namespaces/inkscape"
   xmlns:sodipodi="http://sodipodi.sourceforge.net/DTD/sodipodi-0.dtd"
   xmlns="http://www.w3.org/2000/svg"
   xmlns:svg="http://www.w3.org/2000/svg"><sodipodi:namedview
     id="namedview7"
     pagecolor="#ffffff"
     bordercolor="#000000"
     borderopacity="0.25"
     inkscape:showpageshadow="2"
     inkscape:pageopacity="0.0"
     inkscape:pagecheckerboard="0"
     inkscape:deskcolor="#d1d1d1"
     inkscape:document-units="mm"
     showgrid="false"
     inkscape:zoom="1.6819304"
     inkscape:cx="440.86247"
     inkscape:cy="478.02215"
     inkscape:window-width="2256"
     inkscape:window-height="1398"
     inkscape:window-x="3829"
     inkscape:window-y="-11"
     inkscape:window-maximized="1"
     inkscape:current-layer="layer1" /><defs
     id="defs2" /><g
     inkscape:label="Calque 1"
     inkscape:groupmode="layer"
     id="layer1"><path
       style="fill:#f1f1f1;fill-opacity:1;stroke-width:0.264583"
       d="m 92.168467,171.02601 c -10.61075,-1.47772 -19.813425,-7.91533 -24.578899,-17.19384 -1.600776,-3.11676 -2.497891,-5.59932 -3.227485,-8.93131 -0.508349,-2.32159 -0.577535,-3.63751 -0.695455,-13.22754 -0.07202,-5.85722 -0.04896,-10.64948 0.05124,-10.64948 0.100203,0 5.777968,4.01836 12.617259,8.92968 l 12.43507,8.92969 -6.66068,0.0707 -6.66069,0.0708 0.19045,1.64904 c 0.40085,3.47101 1.47445,6.49973 3.28966,9.28034 3.7337,5.71945 9.502,9.03335 16.29594,9.36205 10.165163,0.4918 18.770083,-5.8354 21.279193,-15.6466 0.52319,-2.04579 0.53522,-2.83452 0.53522,-35.08098 V 75.600416 l -1.58154,-1.22818 c -4.70461,-3.653454 -6.06503,-10.095098 -3.28898,-15.573369 2.24976,-4.439688 7.84986,-7.20704 12.84947,-6.349703 4.04979,0.694463 7.2981,3.101088 9.05874,6.711501 1.73506,3.557936 1.79043,7.230818 0.16183,10.734699 -0.81159,1.746107 -2.92724,4.201017 -4.41048,5.117703 l -0.88279,0.545595 v 32.767608 c 0,21.87561 -0.0943,33.44572 -0.28374,34.80765 -0.91836,6.60277 -3.95745,12.88673 -8.61122,17.80549 -4.72539,4.99447 -10.13679,8.08856 -16.76962,9.58841 -2.61467,0.59124 -8.537643,0.85678 -11.112493,0.49819 z M 125.68734,69.935496 c 2.04768,-0.991266 3.25821,-3.036753 3.25821,-5.505541 0,-3.102849 -2.62156,-5.636118 -5.83256,-5.636118 -5.40302,0 -7.96876,6.439784 -4.0474,10.158634 1.67609,1.58953 4.50221,2.009077 6.62175,0.983025 z"
       id="path248"
       inkscape:export-filename="label_DATA_INTERESTING_DESC_NO_SCAM.png"
       inkscape:export-xdpi="96"
       inkscape:export-ydpi="96" /></g></svg>
