<?xml version="1.0" encoding="UTF-8" standalone="no"?>
<!-- Created with Inkscape (http://www.inkscape.org/) -->

<svg
   width="210mm"
   height="297mm"
   viewBox="0 0 210 297"
   version="1.1"
   id="svg5"
   inkscape:version="1.2.1 (9c6d41e410, 2022-07-14)"
   sodipodi:docname="label_DATA_INTERESTING_DESC_YES_DISCOVERY.svg"
   xmlns:inkscape="http://www.inkscape.org/namespaces/inkscape"
   xmlns:sodipodi="http://sodipodi.sourceforge.net/DTD/sodipodi-0.dtd"
   xmlns="http://www.w3.org/2000/svg"
   xmlns:svg="http://www.w3.org/2000/svg">
  <sodipodi:namedview
     id="namedview7"
     pagecolor="#ffffff"
     bordercolor="#000000"
     borderopacity="0.25"
     inkscape:showpageshadow="2"
     inkscape:pageopacity="0.0"
     inkscape:pagecheckerboard="0"
     inkscape:deskcolor="#d1d1d1"
     inkscape:document-units="mm"
     showgrid="false"
     inkscape:zoom="1.1893044"
     inkscape:cx="409.90347"
     inkscape:cy="616.32665"
     inkscape:window-width="2256"
     inkscape:window-height="1398"
     inkscape:window-x="3829"
     inkscape:window-y="-11"
     inkscape:window-maximized="1"
     inkscape:current-layer="layer1" />
  <defs
     id="defs2" />
  <g
     inkscape:label="Calque 1"
     inkscape:groupmode="layer"
     id="layer1">
    <circle
       style="fill:#f2f2f2;stroke-width:1.665;stroke-linecap:round;stroke-linejoin:round;stop-color:#000000"
       id="path234"
       cx="47.507416"
       cy="53.485168"
       r="11.326271"
       inkscape:export-filename="label_DATA_INTERESTING_DESC_YES_PII.png"
       inkscape:export-xdpi="96"
       inkscape:export-ydpi="96" />
    <path
       id="circle344"
       style="fill:#f2f2f2;stroke-width:3.44562;stroke-linecap:round;stroke-linejoin:round;stop-color:#000000"
       d="M 47.507178 63.224048 A 23.439089 23.439089 0 0 0 24.669812 81.485982 L 70.365214 81.485982 A 23.439089 23.439089 0 0 0 47.507178 63.224048 z " />
    <rect
       style="fill:#f2f2f2;stroke-width:0.8325;stroke-linecap:round;stroke-linejoin:round;stop-color:#000000"
       id="rect420"
       width="18.719818"
       height="4.4046631"
       x="74.01403"
       y="54.789906"
       rx="2.2023311"
       ry="2.2023311" />
    <rect
       style="fill:#f2f2f2;stroke-width:0.8325;stroke-linecap:round;stroke-linejoin:round;stop-color:#000000"
       id="rect422"
       width="18.719818"
       height="4.4046631"
       x="74.01403"
       y="43.778255"
       rx="2.2023311"
       ry="2.2023311" />
    <rect
       style="fill:#f2f2f2;stroke-width:0.8325;stroke-linecap:round;stroke-linejoin:round;stop-color:#000000"
       id="rect424"
       width="18.719818"
       height="4.4046631"
       x="74.01403"
       y="65.801559"
       rx="2.2023311"
       ry="2.2023311" />
    <rect
       style="fill:#f2f2f2;stroke-width:0.8325;stroke-linecap:round;stroke-linejoin:round;stop-color:#000000"
       id="rect426"
       width="18.719818"
       height="4.4046631"
       x="74.01403"
       y="76.81321"
       rx="2.2023311"
       ry="2.2023311" />
    <path
       id="path291"
       style="fill:#f2f2f2;fill-opacity:1;stroke:#f2f2f2;stroke-width:3.00139;stroke-linecap:round;stroke-linejoin:round;stroke-dasharray:none;stroke-opacity:1;stop-color:#000000"
       d="m 118.79494,116.59343 a 30.492678,30.492678 0 0 0 -41.653816,11.1611 30.492678,30.492678 0 0 0 4.445854,36.37749 l -22.38649,38.77454 c -2.3417,4.05594 -0.961659,9.20632 3.09429,11.54802 4.05595,2.34171 9.20633,0.96167 11.54803,-3.09428 l 22.38649,-38.77453 a 30.492678,30.492678 0 0 0 33.726752,-14.33853 30.492678,30.492678 0 0 0 -11.16111,-41.65381 z m -3.07448,5.32516 a 24.3437,24.3437 0 0 1 8.91042,33.25416 24.3437,24.3437 0 0 1 -33.254157,8.91043 24.3437,24.3437 0 0 1 -8.910427,-33.25416 24.3437,24.3437 0 0 1 33.254164,-8.91043 z"
       inkscape:export-filename="label_DATA_INTERESTING_DESC_YES_DISCOVERY.png"
       inkscape:export-xdpi="96"
       inkscape:export-ydpi="96" />
  </g>
</svg>
